<?xml version="1.0" encoding="utf-8"?>
<svg version="1.1" id="Layer_1" xmlns="http://www.w3.org/2000/svg" xmlns:xlink="http://www.w3.org/1999/xlink" x="0px" y="0px"
	 width="160px" height="60px" viewBox="0 0 160 60" style="enable-background:new 0 0 160 60;" xml:space="preserve">
<style type="text/css">
	.st0{fill:#e61e23;}
</style>
<g id="Page-1">
	<g id="Logo">
		<path id="Fill-1" class="st0" d="M144.2,59.4c11.3-9.5,18.1-23.7,15.1-37.1c-2-8.9-6-16.3-11.3-22.3H70.2
			c-1.9,4.1-2.2,9.5-0.4,16.6C73,29.3,80.9,47.7,92.1,59.4h52"/>
		<path id="Fill-3" d="M125.8,9.7c-0.3-0.3-1-0.4-1-0.4V8.9h-0.2c-0.1,0-0.1,0-0.2,0h-4l-4.2,7.4h4.6l0,0.2c0.5,0,1-0.1,1.4-0.5
			l3.6-3.8C126.5,11.5,126.5,10.4,125.8,9.7"/>
		<path id="Fill-5" d="M106.4,42.5c-1.5,1.2-5.5,2.1-7.6,2.1c-4,0-6.8-3-6.8-7.3V25.2h-4.5v-5.9h4.5v-5.6l7.4-3.2v8.7h5.9v5.9h-5.9
			v10.4c0,2.3,0.6,2.9,2.2,2.9c1.2,0,1.9-0.2,3.7-1L106.4,42.5"/>
		<path id="Fill-7" d="M47.6,25.5c-3.1,0-4.6,2.8-4.6,6.5c0,3.7,1.5,6.4,4.6,6.4c3.1,0,4.6-3.1,4.6-6.4
			C52.2,28.3,50.7,25.5,47.6,25.5 M47.6,44.5c-6.5,0-11.2-5.2-11.2-12.6c0-7.4,4.7-12.6,11.2-12.6c6.5,0,11.2,5.2,11.2,12.6
			C58.8,39.4,54.1,44.5,47.6,44.5"/>
		<path id="Fill-9" d="M78.7,44.5V31c0-4.3-1.7-5.6-4.4-5.6c-2.7,0-4.5,1.3-4.5,5.5v13.7h-7.4V19.3h7.4v2.2c1.5-1.2,3.2-2.1,5.7-2.1
			c6.3,0,9.1,4.2,9.1,11v14.1H78.7"/>
		<path id="Fill-11" d="M150.2,27.3c-1-0.9-2.1-1.6-3.6-1.6c-2.5,0-4,1.1-4,5.2v13.5h-7.4V19.3h7.4v2.2c1.5-1.2,2.6-2.1,4.9-2.1
			c2.1,0,3.6,0.8,4.5,1.7L150.2,27.3"/>
		<path id="Fill-13" d="M119.7,25.4c-2.4,0-3.8,1.4-4.1,4.3h8.5C124,26.7,122.6,25.4,119.7,25.4 M130.7,34.1h-15.1
			c0.2,3,2.7,4.5,5.1,4.5c1.8,0,3.3-0.7,4.2-1.7l4.6,3.8c-2,2.5-5.6,3.9-8.9,3.9c-7.1,0-11.7-4.9-11.7-12.6
			c0-7.4,4.8-12.6,11.1-12.6c6.6,0,10.4,5.7,10.4,12.6c0,0.9,0,2.1-0.1,2.1"/>
		<path id="Fill-15" d="M31.2,31.2V11.9h-6.5L18,26.6c-0.9,1.9-1.8,4.2-2.2,5.5c-0.4-1.2-1.4-3.6-2.3-5.5l-7-14.8H0v32.7h5.9v-12
			c0-1.8,0.2-5.9,0.2-7.2c0.5,1.2,1.6,3.5,2.5,5.4l5.6,11.9l0,0c0.2,0.5,0.7,1,1.2,1c0.5,0,1-0.6,1.3-0.6h-0.1h0.1L22.4,31
			c0.9-1.9,2.2-4.3,2.6-5.5c0,0.9,0.2,3.2,0.2,5.1v0c0,0.8,0,1.4,0,1.9v12h2.8l0,0c1.8-0.1,3.1-1.3,3.2-2.8l-0.1,0V31.2"/>
		<path id="Fill-17" d="M146.1,42v-0.7h0.5c0.3,0,0.5,0.1,0.5,0.3c0,0.4-0.3,0.4-0.6,0.4H146.1z M146.1,42.3h0.4l0.6,1h0.4l-0.7-1
			c0.4,0,0.6-0.2,0.6-0.7c0-0.5-0.3-0.7-0.9-0.7h-0.9v2.4h0.4V42.3z M146.5,44.2c1.2,0,2.1-0.9,2.1-2.1c0-1.2-1-2.1-2.1-2.1
			c-1.2,0-2.1,0.9-2.1,2.1C144.4,43.3,145.4,44.2,146.5,44.2L146.5,44.2z M144.8,42.1c0-1,0.8-1.7,1.7-1.7c1,0,1.7,0.7,1.7,1.7
			c0,1-0.8,1.7-1.7,1.7C145.6,43.9,144.8,43.1,144.8,42.1L144.8,42.1z"/>
	</g>
</g>
</svg>